<?xml version="1.0" encoding="UTF-8"?>
<svg id="b" data-name="Layer 2" xmlns="http://www.w3.org/2000/svg" width="43.344" height="18.864" viewBox="0 0 43.344 18.864">
  <g id="c" data-name="Layer 1">
    <g>
      <ellipse cx="21.672" cy="9.432" rx="9.307" ry="21.725" transform="translate(10.592 30.309) rotate(-85.564)" fill="#6c1736"/>
      <ellipse cx="21.672" cy="9.432" rx="8.648" ry="21.143" transform="translate(10.592 30.309) rotate(-85.564)" fill="none" stroke="#f8eee5" stroke-miterlimit="10" stroke-width=".25"/>
      <g>
        <g>
          <path d="M19.322,9.154c-.132-.01-.19-.07-.181-.186.019-.249.412-.265.448-.724l.144-1.859c.038-.49-.269-.569-.254-.763.008-.109.118-.218.36-.207.569.028.91-.227,1.198-.205.124.01.174.076.16.263l-.042.545.023.002c.212-.406.653-.748,1.26-.701.591.046.994.304,1.059.881h.016c.205-.327.575-.753,1.33-.694.646.05,1.081.389,1.019,1.191l-.157,2.022c-.036.459.35.536.331.785-.009.117-.076.166-.208.156-.241-.019-.44-.073-.783-.1l-.202-.016c-.342-.027-.548-.003-.789-.022-.132-.01-.19-.07-.181-.186.019-.249.412-.265.448-.724l.15-1.937c.033-.42-.131-.534-.318-.549-.288-.022-.546.286-.689.807l-.124,1.602c-.036.459.35.536.331.785-.009.117-.076.166-.208.156-.241-.019-.44-.073-.783-.1l-.202-.016c-.342-.027-.548-.003-.789-.022-.132-.01-.19-.07-.181-.186.019-.249.412-.265.448-.724l.151-1.945c.03-.381-.108-.525-.326-.542-.28-.022-.538.271-.684.847l-.121,1.563c-.036.459.35.536.331.785-.009.117-.076.166-.208.156-.241-.019-.44-.073-.783-.1l-.202-.016c-.342-.027-.548-.003-.789-.022Z" fill="#f8eee5"/>
          <path d="M26.236,8.79c.071-.918,1.231-1.345,2.534-1.291l.041-.529c.042-.544-.063-.803-.398-.829-.599-.046-.609.986-1.293.932-.264-.021-.429-.221-.409-.47.044-.568.719-.899,1.707-.822,1.011.078,1.838.518,1.752,1.631l-.107,1.385c-.053.685.262.756.244.989-.01.124-.114.155-.365.16-.572.01-.888.048-1.184.025-.124-.01-.174-.076-.16-.263l.022-.28c-.261.238-.718.476-1.371.426-.591-.046-1.066-.38-1.013-1.065ZM28.029,9.282c.257.02.478-.112.626-.296l.091-1.175c-.667.019-1.162.356-1.203.885-.028.366.176.561.487.585Z" fill="#f8eee5"/>
          <path d="M30.678,10.035c-.14-.011-.19-.07-.181-.186.019-.249.412-.265.448-.724l.144-1.859c.038-.49-.277-.569-.262-.764.008-.109.126-.217.368-.206.569.028.91-.227,1.198-.205.124.01.174.076.16.263l-.223,2.878c-.036.459.35.536.331.785-.009.117-.076.166-.208.156-.241-.019-.448-.074-.783-.1l-.21-.016c-.334-.026-.54-.003-.781-.021ZM32.198,3.913l.133.515.53.049c.181.017.238.254.085.352l-.449.285.117.519c.04.178-.168.305-.308.189l-.41-.339-.457.271c-.157.093-.342-.065-.275-.235l.195-.495-.399-.351c-.137-.12-.044-.346.138-.334l.531.033.211-.488c.072-.167.315-.148.361.028Z" fill="#f8eee5"/>
          <path d="M33.034,10.218c-.132-.01-.19-.07-.181-.186.019-.249.412-.265.448-.724l.144-1.859c.038-.49-.269-.569-.254-.763.008-.109.119-.218.36-.207.569.028.91-.227,1.198-.205.124.01.174.076.16.263l-.042.545.024.002c.211-.406.653-.748,1.259-.701.692.054,1.12.392,1.058,1.194l-.157,2.022c-.036.459.35.536.331.785-.009.117-.076.166-.208.156-.241-.019-.44-.073-.783-.1l-.202-.016c-.342-.027-.548-.003-.789-.022-.132-.01-.19-.07-.181-.186.019-.249.412-.265.448-.724l.151-1.945c.03-.381-.108-.525-.326-.542-.28-.022-.537.271-.684.847l-.121,1.563c-.036.459.35.536.331.785-.009.117-.076.166-.208.156-.241-.019-.44-.073-.783-.1l-.202-.016c-.342-.027-.548-.003-.789-.022Z" fill="#f8eee5"/>
          <path d="M18.808,15.357c-.14-.011-.19-.07-.181-.186.019-.249.412-.265.448-.724l.265-3.415c.038-.49-.277-.569-.262-.764.008-.109.127-.217.368-.206.569.028.91-.227,1.198-.205.124.01.174.076.16.263l-.002.031c.335-.177.629-.233.963-.207.778.06,1.611.72,1.495,2.213-.117,1.509-1.124,1.979-1.793,1.927-.49-.038-.779-.24-.892-.406l-.047-.004-.068.879c-.036.459.35.536.331.785-.009.117-.076.166-.208.156-.241-.019-.448-.074-.783-.1l-.21-.016c-.334-.026-.54-.003-.781-.021ZM21.05,13.496c.358.028.665-.395.752-1.515.079-1.019-.157-1.609-.577-1.641-.218-.017-.425.131-.466.355l-.154,1.984c-.02.562.134.793.445.817Z" fill="#f8eee5"/>
          <path d="M23.768,13.152l.157-2.023c.036-.459-.35-.536-.33-.785.009-.117.068-.167.208-.156.241.019.44.073.775.099l.723.056c.101.008.145.05.139.128-.005.062-.083.166-.099.368l-.182,2.342c-.029.373.12.565.401.587.194.015.402-.141.57-.386l.161-2.069c.036-.459-.35-.536-.33-.785.009-.117.068-.167.208-.156.234.018.44.073.775.099l.723.056c.101.008.145.05.139.128-.005.062-.083.166-.099.368l-.175,2.256c-.053.685.254.755.236.989-.01.124-.116.179-.357.168-.616-.032-.895.04-1.191.017-.124-.01-.166-.076-.152-.262l.033-.428c-.293.345-.737.624-1.313.579-.653-.051-1.081-.389-1.019-1.19Z" fill="#f8eee5"/>
          <path d="M28.017,16.072c-.14-.011-.19-.07-.181-.186.019-.249.412-.265.448-.724l.265-3.415c.038-.49-.277-.569-.262-.764.008-.109.127-.217.368-.206.569.028.91-.227,1.198-.205.124.01.174.076.16.263l-.002.031c.335-.177.629-.233.963-.207.778.06,1.611.72,1.495,2.213-.117,1.509-1.124,1.979-1.793,1.927-.49-.038-.779-.24-.892-.406l-.047-.004-.068.879c-.036.459.35.536.331.785-.009.117-.076.166-.208.156-.241-.019-.448-.074-.783-.1l-.21-.016c-.334-.026-.54-.003-.781-.021ZM30.259,14.211c.358.028.665-.395.752-1.515.079-1.019-.157-1.609-.577-1.641-.218-.017-.425.131-.466.355l-.154,1.984c-.02.562.134.793.445.817Z" fill="#f8eee5"/>
          <g>
            <path d="M18.685,9.776c-.057-.574-.632-1.112-1.246-1.607-.637-.514-1.318-.945-2.024-1.283-.008-.026-.017-.051-.03-.076-.032-.067-.077-.118-.127-.158.004-.026.007-.051.008-.077.011-.237-.104-.473-.321-.664-.118-.104-.248-.188-.381-.257.024-.05.043-.101.056-.154.054-.216.012-.436-.121-.634-.187-.28-.467-.398-.738-.457-.002-.02-.004-.041-.008-.063-.1-.573-.865-.618-1.119-.634-.494-.029-1.017.042-1.498.202-.311-.238-.704-.373-1.075-.361-.376.012-.67.194-.768.476-.014.04-.029.1-.032.174-.04.012-.08.025-.119.041-.115.045-.213.102-.295.17l-.015-.003c-.079-.018-.157-.035-.249-.049-.049-.007-.117-.02-.196-.011-.147.015-.273.09-.352.202-.019.001-.037.004-.056.005-1.4.154-2.462.5-3.343,1.091-.087.058-.171.122-.254.185-.07.053-.139.106-.211.154-.082.055-.168.106-.253.158-.111.067-.222.134-.327.207-.071.049-.141.101-.21.154l-.13.096-.087.087c-.103.141-.12.326-.048.482-.278.524-.384,1.189.075,1.595.21.186.439.24.647.238.02.074.049.145.086.213.144.259.402.441.726.513.124.027.247.036.37.031-.012.176.029.329.086.451.153.329.493.573.894.653-.003.019-.005.038-.007.057-.036.348.116.702.396.925.34.272.726.266,1.022.202.107.211.273.373.473.457.149.063.309.078.468.049.007.005.014.01.021.014.409.282.987.555,1.586.749.311.101.6.172.873.213.454.068.861.054,1.24-.042.239.108.597.146,1.029-.19.056-.043.109-.09.159-.139.163.103.344.194.557.238.404.084.67-.055.823-.185.163-.137.278-.335.338-.571.092-.018.164-.053.213-.083.193-.119.319-.34.359-.621.103-.023.202-.068.284-.145.144-.135.215-.293.246-.453.052-.008.103-.024.151-.05.203.089.421.172.645.231.269.068.939.186,1.328-.238.172-.187.27-.471.156-.8.2-.123.364-.335.327-.705Z" fill="#f8eee5"/>
            <g>
              <path d="M13.189,4.72c.335.045.779.049.989.362.201.3-.023.573-.293.718.283.089.578.203.805.402.197.173.286.42.038.602-.013.009-.077.035-.073.046.084.035.342.047.382.13.025.052-.017.119-.07.13.085.046.179.078.266.119.704.334,1.357.753,1.963,1.242.358.289,1.055.861,1.103,1.342.035.351-.253.411-.528.458.187.2.37.503.146.747-.219.238-.659.197-.944.123-.309-.08-.616-.219-.904-.356-.002.02.022.03.029.055.015.058-.045.126-.103.11-.111-.031-.233-.149-.331-.209.045.246.111.571-.097.766-.089.084-.3.066-.405.02-.01.004.012.194.012.219-.001.342-.159.648-.539.461.013.468-.204.917-.741.808-.267-.054-.489-.224-.707-.378-.086.134-.202.256-.327.354-.228.178-.482.268-.739.077-.669.218-1.388.091-2.044-.121-.488-.158-1.063-.408-1.485-.699-.057-.039-.111-.085-.163-.13-.334.173-.623-.045-.724-.372-.009-.029-.027-.186-.042-.19-.333.138-.722.236-1.034-.013-.171-.137-.274-.362-.251-.581.019-.182.11-.333.209-.482l-.375.021c-.298-.02-.624-.172-.755-.454-.148-.318.05-.615.27-.84-.305.101-.671.214-.995.142-.399-.088-.639-.415-.499-.815-.271.085-.55.149-.786-.061-.418-.371-.034-1.148.259-1.486-.046.008-.083.059-.126.071-.083.023-.155-.069-.103-.141.112-.081.22-.167.334-.245.187-.129.391-.237.577-.362.157-.106.304-.232.464-.339.948-.635,2.047-.904,3.169-1.027.123-.014.25-.017.37-.035-.091-.043-.063-.162.035-.172.027-.003.072.006.101.01.157.022.311.072.469.091.049-.114.177-.187.288-.232.171-.068.356-.084.537-.095-.339-.284-.137-.556.251-.569.357-.011.734.16.979.417.486-.196,1.035-.289,1.559-.258.212.013.714.053.759.312.025.143-.085.227-.183.308ZM13.174,4.446c-.139-.106-.349-.126-.52-.139-.415-.031-.856.029-1.257.136-.079.021-.239.091-.306.085-.157-.014-.255-.135-.38-.21-.171-.103-.478-.194-.679-.171-.043.005-.149.029-.167.071-.025.061.161.182.206.21.065.04.23.097.248.167.022.087-.061.14-.138.145-.089.005-.218-.022-.316-.023-.146-.001-.546.038-.64.156-.017.022.019.013.038.026.015.01.025.026.04.034.046.024.127.03.143.1.029.129-.144.114-.204.199-.057.081-.017.101-.012.176.011.16-.094.149-.199.226-.045.033-.215.174-.178.236.026.045.266-.022.315-.035.096-.025.325-.146.377-.018.053.13-.205.17-.283.203-.131.273-.346.527-.541.76-.463.553-1.025,1.081-1.581,1.538-.353.29-.739.54-1.081.844-.258.229-.663.61-.308.942.191.178.451.215.701.185.083-.01.334-.083.391-.055.033.016.072.07.077.105.011.084-.165.255-.216.336-.193.309-.163.678.225.796.295.09.5-.083.755-.148.06-.016.145-.02.167.055.014.05.005.166.019.236.043.201.192.432.426.338.08-.032.177-.135.256-.038.023.028.009.072.032.096.027.028.127.093.165.116.125.077.282.157.414.223.798.398,1.955.813,2.845.55.078-.023.094-.075.184-.016.073.048.074.081.181.099.181.031.42-.184.533-.31.079-.088.18-.305.315-.257.11.039.244.18.354.247.492.3.855.21.853-.424,0-.112-.059-.248.066-.306.104-.049.166.063.25.106.202.104.222-.147.224-.287.001-.116-.04-.264-.034-.367.004-.061.072-.142.132-.13.063.012.277.171.331.095.021-.029.038-.166.04-.208.016-.269-.116-.787-.257-1.017-.094-.154-.235-.287-.333-.435-.081-.122-.019-.271-.015-.411.008-.279-.068-.667-.134-.941-.106-.44-.332-1.037-.635-1.378-.041-.046-.106-.091-.138-.132-.063-.082.011-.19.108-.146.042.019.083.081.123.084.156-.042.704-.081.452-.355-.155-.169-.611-.407-.841-.433-.077-.009-.124.033-.187-.034-.014-.015-.041-.075-.04-.094.012-.128.272-.23.367-.309.106-.089.185-.178.114-.319-.098-.195-.405-.24-.601-.268-.136-.02-.374-.014-.491-.051-.052-.016-.108-.061-.111-.118-.01-.144.302-.213.354-.337ZM16.942,8.765c-.175-.07-.214.092-.117.15.066.039.156.074.227.114.047.026.067.069.132.065.08-.005.117-.106.062-.161-.04-.041-.243-.143-.305-.168ZM17.729,9.417c-.044-.018-.431-.095-.474-.092-.103.007-.125.127-.039.174.138.005.365.118.493.105.103-.011.125-.143.02-.187ZM16.822,9.139c-.068-.019-.127.055-.107.12.005.014.141.246.152.256.075.07.18,0,.15-.106-.01-.037-.108-.2-.135-.231-.017-.02-.035-.032-.06-.039ZM8.023,6.567c-.105-.036-.155.132-.197.199-.038.061-.166.228-.161.29.006.066.086.102.141.069.031-.019.089-.102.11-.136.039-.062.149-.254.166-.315.011-.041-.019-.094-.059-.107ZM7.474,6.725c-.031-.008-.053.004-.076.023-.061.049-.262.251-.306.312-.092.128.018.221.126.143.066-.048.243-.239.292-.307.051-.071.066-.143-.036-.171ZM7.382,7.349c-.028-.012-.068-.003-.093.012-.043.025-.259.205-.289.243-.092.114,0,.219.113.151.048-.029.252-.205.287-.248.044-.053.053-.126-.019-.158Z" fill="#6c1736"/>
              <path d="M11.123,9.05c.012.011.017.005.027.003.083-.01.169-.04.257-.048.229-.022.573,0,.783.095.276.124.626.489.357.783-.205.224-.569.237-.851.235-.054.135-.073.287-.054.431.008.064.045.227.094.266.017.013.04.02.059.035.079.064.004.193-.102.152-.218-.085-.241-.42-.266-.618-.131.152-.3.273-.498.312-.17.033-.408-.001-.51-.155-.084-.127.048-.217.131-.138.013.012.013.034.035.05.076.058.167.068.258.058.248-.028.421-.245.57-.425-.22-.044-.437-.119-.627-.245-.126-.083-.185-.22-.157-.368-.304-.109-.504-.342-.749-.535-.215.07-.587.204-.805.114-.131-.054-.242-.156-.234-.306.008-.155.181-.46.262-.6.026-.045.14-.194.142-.231-.054-.103-.125-.196-.172-.303-.035-.078-.12-.301-.12-.379,0-.438.707-.186.947-.172.133-.089.247-.202.38-.291.259-.175.591-.371.798-.012.122.21.172.467.235.699.012.012.027.018.042.025.239.117,1.044.3.633.696-.214.206-.546.263-.793.419l-.071.453ZM10.559,7.545c-.447-.167-.943.414-.744.855.244.542,1.012.322,1.149-.196.078-.295-.136-.558-.405-.659Z" fill="#6c1736"/>
              <path d="M14.421,9.986c.73.305.513,1.158-.206,1.318-.493.11-1.175-.215-1.029-.799.128-.513.782-.709,1.235-.519Z" fill="#6c1736"/>
              <path d="M8.212,8.617c.481.208.77.837.29,1.211-.504.393-1.459-.018-1.432-.675.023-.572.694-.73,1.142-.536Z" fill="#6c1736"/>
              <path d="M11.982,6.757c-.065.096-.198.218-.321.213-.397-.015-.29-.771-.147-.986.076-.114.203-.034.169.071-.062.191-.129.354-.096.565.056.358.282-.069.34-.193.053-.115.093-.394.279-.25.047.037.077.184.142.244.16.148.172-.061.166-.178-.005-.086-.081-.326.066-.33.11-.003.119.154.129.233.023.176.028.43-.168.512-.112.046-.237.002-.322-.077-.022-.021-.074-.101-.08-.104-.022-.011-.016.019-.016.02-.044.081-.09.187-.14.261Z" fill="#6c1736"/>
              <path d="M13.174,8.518c.042-.012.1.008.134.034.166.125-.031.679-.279.522-.174-.111-.023-.508.145-.556Z" fill="#6c1736"/>
              <path d="M10.489,7.762c.022.007.03.014.046.028.221.193-.033.754-.291.637-.12-.054-.129-.234-.086-.342.041-.104.193-.366.331-.323Z" fill="#6c1736"/>
            </g>
          </g>
        </g>
        <path d="M35.107,12.291l.133.515.53.049c.181.017.238.254.085.352l-.449.285.117.519c.04.178-.168.305-.308.189l-.41-.339-.457.271c-.157.093-.342-.065-.275-.235l.195-.495-.399-.351c-.137-.12-.044-.346.138-.334l.531.033.211-.488c.072-.167.315-.148.361.028Z" fill="#f8eee5"/>
      </g>
    </g>
  </g>
</svg>